<mxfile host="app.diagrams.net" modified="2023-12-09T07:38:37.228Z" agent="Mozilla/5.0 (Windows NT 10.0; Win64; x64) AppleWebKit/537.36 (KHTML, like Gecko) Chrome/119.0.0.0 Safari/537.36 Edg/119.0.0.0" etag="x8efH8EW_m2gxSKBGpHy" version="22.1.7" type="github">
  <diagram name="Page-1" id="52a04d89-c75d-2922-d76d-85b35f80e030">
    <mxGraphModel dx="1477" dy="995" grid="1" gridSize="10" guides="1" tooltips="1" connect="1" arrows="1" fold="1" page="1" pageScale="1" pageWidth="1100" pageHeight="850" background="none" math="0" shadow="0">
      <root>
        <mxCell id="0" />
        <mxCell id="1" parent="0" />
        <mxCell id="21ea969265ad0168-30" value="用户信息表" style="html=1;rounded=0;shadow=0;comic=0;labelBackgroundColor=none;strokeWidth=2;fontFamily=Verdana;fontSize=12;align=center;shape=mxgraph.ios7ui.horLines;" parent="1" vertex="1">
          <mxGeometry x="610" y="109" width="135" height="50" as="geometry" />
        </mxCell>
        <mxCell id="17472293e6e8944d-4" value="帖子和评论信息" style="html=1;rounded=0;shadow=0;comic=0;labelBackgroundColor=none;strokeWidth=2;fontFamily=Verdana;fontSize=12;align=center;shape=mxgraph.ios7ui.horLines;" parent="1" vertex="1">
          <mxGeometry x="610" y="451" width="135" height="50" as="geometry" />
        </mxCell>
        <mxCell id="dwps5ERsAA-hx8bJXmVy-15" style="edgeStyle=orthogonalEdgeStyle;rounded=0;orthogonalLoop=1;jettySize=auto;html=1;exitX=0.75;exitY=1;exitDx=0;exitDy=0;entryX=0.75;entryY=0;entryDx=0;entryDy=0;" edge="1" parent="1" source="17472293e6e8944d-29" target="1fdf3b25b50cf41e-1">
          <mxGeometry relative="1" as="geometry" />
        </mxCell>
        <mxCell id="dwps5ERsAA-hx8bJXmVy-16" value="已审核信息" style="edgeLabel;html=1;align=center;verticalAlign=middle;resizable=0;points=[];" vertex="1" connectable="0" parent="dwps5ERsAA-hx8bJXmVy-15">
          <mxGeometry x="0.0743" y="-1" relative="1" as="geometry">
            <mxPoint y="-1" as="offset" />
          </mxGeometry>
        </mxCell>
        <mxCell id="17472293e6e8944d-29" value="审核员" style="whiteSpace=wrap;html=1;rounded=0;shadow=0;comic=0;labelBackgroundColor=none;strokeWidth=1;fontFamily=Verdana;fontSize=12;align=center;" parent="1" vertex="1">
          <mxGeometry x="360" y="280" width="120" height="50" as="geometry" />
        </mxCell>
        <mxCell id="dwps5ERsAA-hx8bJXmVy-2" style="edgeStyle=orthogonalEdgeStyle;rounded=0;orthogonalLoop=1;jettySize=auto;html=1;exitX=0.75;exitY=1;exitDx=0;exitDy=0;entryX=0;entryY=0.25;entryDx=0;entryDy=0;" edge="1" parent="1" source="17472293e6e8944d-30" target="1fdf3b25b50cf41e-1">
          <mxGeometry relative="1" as="geometry" />
        </mxCell>
        <mxCell id="dwps5ERsAA-hx8bJXmVy-4" value="评论信息" style="edgeLabel;html=1;align=center;verticalAlign=middle;resizable=0;points=[];" vertex="1" connectable="0" parent="dwps5ERsAA-hx8bJXmVy-2">
          <mxGeometry x="-0.5895" relative="1" as="geometry">
            <mxPoint y="1" as="offset" />
          </mxGeometry>
        </mxCell>
        <mxCell id="dwps5ERsAA-hx8bJXmVy-8" style="edgeStyle=orthogonalEdgeStyle;rounded=0;orthogonalLoop=1;jettySize=auto;html=1;exitX=0.5;exitY=0;exitDx=0;exitDy=0;entryX=0;entryY=0.25;entryDx=0;entryDy=0;" edge="1" parent="1" source="17472293e6e8944d-30" target="1fdf3b25b50cf41e-11">
          <mxGeometry relative="1" as="geometry">
            <Array as="points">
              <mxPoint x="150" y="133" />
              <mxPoint x="350" y="133" />
            </Array>
          </mxGeometry>
        </mxCell>
        <mxCell id="dwps5ERsAA-hx8bJXmVy-9" value="用户信息" style="edgeLabel;html=1;align=center;verticalAlign=middle;resizable=0;points=[];" vertex="1" connectable="0" parent="dwps5ERsAA-hx8bJXmVy-8">
          <mxGeometry x="-0.4948" y="-1" relative="1" as="geometry">
            <mxPoint as="offset" />
          </mxGeometry>
        </mxCell>
        <mxCell id="17472293e6e8944d-30" value="用户" style="whiteSpace=wrap;html=1;rounded=0;shadow=0;comic=0;labelBackgroundColor=none;strokeWidth=1;fontFamily=Verdana;fontSize=12;align=center;" parent="1" vertex="1">
          <mxGeometry x="90" y="280" width="120" height="50" as="geometry" />
        </mxCell>
        <mxCell id="dwps5ERsAA-hx8bJXmVy-6" style="edgeStyle=orthogonalEdgeStyle;rounded=0;orthogonalLoop=1;jettySize=auto;html=1;exitX=1;exitY=0.5;exitDx=0;exitDy=0;" edge="1" parent="1" source="1fdf3b25b50cf41e-1" target="17472293e6e8944d-4">
          <mxGeometry relative="1" as="geometry" />
        </mxCell>
        <mxCell id="dwps5ERsAA-hx8bJXmVy-7" value="已通过的帖子和评论" style="edgeLabel;html=1;align=center;verticalAlign=middle;resizable=0;points=[];" vertex="1" connectable="0" parent="dwps5ERsAA-hx8bJXmVy-6">
          <mxGeometry x="0.0524" y="-1" relative="1" as="geometry">
            <mxPoint as="offset" />
          </mxGeometry>
        </mxCell>
        <mxCell id="dwps5ERsAA-hx8bJXmVy-12" style="edgeStyle=orthogonalEdgeStyle;rounded=0;orthogonalLoop=1;jettySize=auto;html=1;exitX=0.25;exitY=0;exitDx=0;exitDy=0;entryX=0.25;entryY=1;entryDx=0;entryDy=0;" edge="1" parent="1" source="1fdf3b25b50cf41e-1" target="17472293e6e8944d-29">
          <mxGeometry relative="1" as="geometry" />
        </mxCell>
        <mxCell id="dwps5ERsAA-hx8bJXmVy-14" value="待审核信息" style="edgeLabel;html=1;align=center;verticalAlign=middle;resizable=0;points=[];" vertex="1" connectable="0" parent="dwps5ERsAA-hx8bJXmVy-12">
          <mxGeometry x="-0.0164" y="-1" relative="1" as="geometry">
            <mxPoint as="offset" />
          </mxGeometry>
        </mxCell>
        <mxCell id="dwps5ERsAA-hx8bJXmVy-17" style="edgeStyle=orthogonalEdgeStyle;rounded=0;orthogonalLoop=1;jettySize=auto;html=1;exitX=0.5;exitY=1;exitDx=0;exitDy=0;" edge="1" parent="1" source="1fdf3b25b50cf41e-1">
          <mxGeometry relative="1" as="geometry">
            <mxPoint x="419.9230769230769" y="590" as="targetPoint" />
          </mxGeometry>
        </mxCell>
        <mxCell id="1fdf3b25b50cf41e-1" value="1.5" style="swimlane;html=1;fontStyle=0;childLayout=stackLayout;horizontal=1;startSize=26;fillColor=#e0e0e0;horizontalStack=0;resizeParent=1;resizeLast=0;collapsible=1;marginBottom=0;swimlaneFillColor=#ffffff;align=center;rounded=1;shadow=0;comic=0;labelBackgroundColor=none;strokeWidth=1;fontFamily=Verdana;fontSize=12" parent="1" vertex="1">
          <mxGeometry x="350" y="450" width="140" height="52" as="geometry" />
        </mxCell>
        <mxCell id="1fdf3b25b50cf41e-2" value="社区交流服务" style="text;html=1;strokeColor=none;fillColor=none;spacingLeft=4;spacingRight=4;whiteSpace=wrap;overflow=hidden;rotatable=0;points=[[0,0.5],[1,0.5]];portConstraint=eastwest;align=center;" parent="1fdf3b25b50cf41e-1" vertex="1">
          <mxGeometry y="26" width="140" height="26" as="geometry" />
        </mxCell>
        <mxCell id="1fdf3b25b50cf41e-6" value="流浪猫喂食信息" style="html=1;rounded=0;shadow=0;comic=0;labelBackgroundColor=none;strokeWidth=2;fontFamily=Verdana;fontSize=12;align=center;shape=mxgraph.ios7ui.horLines;" parent="1" vertex="1">
          <mxGeometry x="350" y="580" width="135" height="50" as="geometry" />
        </mxCell>
        <mxCell id="dwps5ERsAA-hx8bJXmVy-11" style="edgeStyle=orthogonalEdgeStyle;rounded=0;orthogonalLoop=1;jettySize=auto;html=1;exitX=1;exitY=0.5;exitDx=0;exitDy=0;" edge="1" parent="1" source="1fdf3b25b50cf41e-11" target="21ea969265ad0168-30">
          <mxGeometry relative="1" as="geometry" />
        </mxCell>
        <mxCell id="1fdf3b25b50cf41e-11" value="1.9" style="swimlane;html=1;fontStyle=0;childLayout=stackLayout;horizontal=1;startSize=26;fillColor=#e0e0e0;horizontalStack=0;resizeParent=1;resizeLast=0;collapsible=1;marginBottom=0;swimlaneFillColor=#ffffff;align=center;rounded=1;shadow=0;comic=0;labelBackgroundColor=none;strokeWidth=1;fontFamily=Verdana;fontSize=12" parent="1" vertex="1">
          <mxGeometry x="350" y="107" width="140" height="52" as="geometry" />
        </mxCell>
        <mxCell id="1fdf3b25b50cf41e-12" value="用户认证登录" style="text;html=1;strokeColor=none;fillColor=none;spacingLeft=4;spacingRight=4;whiteSpace=wrap;overflow=hidden;rotatable=0;points=[[0,0.5],[1,0.5]];portConstraint=eastwest;align=center;" parent="1fdf3b25b50cf41e-11" vertex="1">
          <mxGeometry y="26" width="140" height="26" as="geometry" />
        </mxCell>
        <mxCell id="dwps5ERsAA-hx8bJXmVy-3" style="edgeStyle=orthogonalEdgeStyle;rounded=0;orthogonalLoop=1;jettySize=auto;html=1;exitX=0;exitY=0.5;exitDx=0;exitDy=0;" edge="1" parent="1" source="1fdf3b25b50cf41e-2" target="17472293e6e8944d-30">
          <mxGeometry relative="1" as="geometry" />
        </mxCell>
        <mxCell id="dwps5ERsAA-hx8bJXmVy-5" value="社区信息" style="edgeLabel;html=1;align=center;verticalAlign=middle;resizable=0;points=[];" vertex="1" connectable="0" parent="dwps5ERsAA-hx8bJXmVy-3">
          <mxGeometry x="-0.1752" y="2" relative="1" as="geometry">
            <mxPoint as="offset" />
          </mxGeometry>
        </mxCell>
      </root>
    </mxGraphModel>
  </diagram>
</mxfile>
